<svg t="1690948269824" class="icon" viewBox="0 0 1024 1024" version="1.1" xmlns="http://www.w3.org/2000/svg" p-id="23984" width="343" height="343"><path d="M750.575916 322.747644c-12.867016 4.289005-26.806283 7.505759-39.673298 9.650262l-25.734032 3.216754c-6.433508 1.072251-11.794764 1.072251-17.156021 1.072251-8.57801 1.072251-18.228272 1.072251-27.878534 1.072251-6.433508 1.072251-13.939267 0-20.372774 1.072252-7.505759 1.072251-16.08377 0-23.589529 2.144502h-5.361257c-1.072251 2.144503-3.216754 5.361257-4.289005 7.505759-6.433508 13.939267-15.011518 27.878534-23.589529 40.74555-4.289005 6.433508-9.650262 12.867016-16.083769 18.228272-3.216754 3.216754-7.505759 6.433508-12.867016 8.578011-5.361257 4.289005-10.722513 4.289005-17.156021 3.216754-3.216754 0-5.361257-2.144503-6.433508-4.289005-2.144503-2.144503-4.289005-5.361257-5.361257-8.578011-1.072251-2.144503-2.144503-4.289005-3.216753-7.505759-1.072251 1.072251-2.144503 2.144503-3.216754 1.072251-7.505759-1.072251-15.011518-1.072251-21.445027-1.072251-3.216754 0-7.505759 0-10.722513-1.072251h-3.216754c-17.156021-1.072251-33.239791-3.216754-49.32356-6.433508-16.08377-3.216754-31.095288-8.57801-45.034555-16.08377-10.722513-5.361257-20.372775-11.794764-27.878534-20.372775-11.794764-10.722513-21.445026-22.517277-30.023036-35.384293-1.072251-2.144503-3.216754-4.289005-5.361257-6.433508v6.433508c0 22.517277 1.072251 45.034555 4.289005 68.624084 3.216754 24.66178 8.57801 49.32356 17.156021 72.913089 1.072251 3.216754 2.144503 6.433508 4.289005 9.650262 1.072251 0 3.216754 0 4.289006 1.072251 11.794764 4.289005 23.589529 7.505759 36.456544 10.722513 13.939267 3.216754 27.878534 6.433508 41.817801 8.57801 8.57801 1.072251 17.156021 3.216754 26.806283 3.216754 7.505759 1.072251 13.939267 1.072251 21.445026 1.072252 2.144503 0 5.361257 0 7.505759 1.072251 2.144503 1.072251 4.289005 0 6.433508 1.072251 6.433508 0 12.867016 0 19.300524 1.072252H600.460733c3.216754 0 5.361257 0 8.57801-1.072252 2.144503-1.072251 5.361257-1.072251 7.50576-1.072251 10.722513 0 22.517277-1.072251 33.23979-2.144503 4.289005-1.072251 9.650262-1.072251 13.939267-1.072251 15.011518-2.144503 31.095288-4.289005 46.106806-7.505759 15.011518-3.216754 28.950785-7.505759 42.890053-11.794764 2.144503-1.072251 5.361257-1.072251 7.505759-1.072252 3.216754-6.433508 4.289005-13.939267 6.433508-21.445026 12.867016-45.034555 24.66178-91.141361 36.456544-137.248167 1.072251-5.361257 3.216754-10.722513 3.216754-16.08377-3.216754 1.072251-5.361257 3.216754-7.505759 4.289005-17.156021 7.505759-32.167539 15.011518-48.251309 20.372775zM695.891099 515.75288l-22.517277 3.216754c-5.361257 1.072251-10.722513 2.144503-16.08377 2.144502-6.433508 1.072251-12.867016 1.072251-18.228272 2.144503-10.722513 2.144503-20.372775 0-31.095288 2.144502H496.452356c-3.216754 0-5.361257 0-8.57801-1.072251-2.144503-1.072251-4.289005 0-6.433508-1.072251-5.361257 0-10.722513 0-17.156021-1.072252h-2.144503c-7.505759 1.072251-15.011518-1.072251-22.517277-2.144502-8.57801-1.072251-17.156021-3.216754-26.806283-3.216754-9.650262-1.072251-18.228272-3.216754-27.878534-4.289005-10.722513-2.144503-21.445026-4.289005-32.167539-7.50576-2.144503-1.072251-4.289005-1.072251-6.433508-1.072251 5.361257 10.722513 11.794764 20.372775 19.300523 28.950786 20.372775 25.734031 46.106806 45.034555 76.129843 57.90157 8.57801 3.216754 17.156021 5.361257 25.734032 8.578011 1.072251 0 1.072251 1.072251 2.144502 1.072251 2.144503 0 4.289005 1.072251 6.433508 1.072251 10.722513 2.144503 20.372775 4.289005 31.095288 4.289006 2.144503 0 4.289005 1.072251 7.505759 1.072251 0 2.144503-1.072251 3.216754-1.072251 5.361256 8.57801 1.072251 18.228272 3.216754 26.806283 4.289006 6.433508 1.072251 11.794764 1.072251 17.156021 2.144502 6.433508 1.072251 13.939267 1.072251 20.372774 2.144503h1.072252c7.505759 0 15.011518 1.072251 22.517277 2.144502 8.57801 1.072251 16.08377 0 23.589529 1.072252 10.722513 1.072251 21.445026 1.072251 32.167539 1.072251 5.361257 0 10.722513 0 16.08377 1.072251h5.361257c9.650262 0 20.372775 0 30.023036-1.072251l12.867016-35.384293c9.650262-27.878534 18.228272-54.684817 25.734031-82.563351 1.072251-2.144503 1.072251-4.289005 1.072252-5.361256-5.361257 1.072251-10.722513 3.216754-15.011519 4.289005-13.939267 4.289005-25.734031 7.505759-37.528796 9.650262zM571.509948 763.442932c-10.722513-2.144503-20.372775-3.216754-30.023037-5.361257-13.939267-3.216754-27.878534-5.361257-41.817801-8.57801-25.734031-5.361257-51.468063-12.867016-76.129843-21.445026-15.011518-5.361257-30.023037-10.722513-43.962304-18.228273-4.289005 0-9.650262 1.072251-13.939267 1.072252-6.433508 0-12.867016 0-18.228272-1.072252h-1.072251c-3.216754 1.072251-7.505759-1.072251-10.722513-2.144502-12.867016-4.289005-22.517277-10.722513-32.16754-20.372775l-8.57801-8.57801c-6.433508-7.505759-12.867016-12.867016-20.372775-18.228273l-2.144503-2.144502-1.072251-1.072252c-3.216754-1.072251-6.433508-3.216754-8.57801-4.289005-5.361257-2.144503-9.650262-4.289005-15.011519-5.361256 2.144503 15.011518 6.433508 30.023037 11.794765 45.034555 6.433508 15.011518 12.867016 30.023037 22.517277 43.962303 5.361257 7.505759 10.722513 15.011518 18.228272 21.445026 6.433508 6.433508 12.867016 12.867016 20.372775 18.228273s13.939267 10.722513 21.445027 15.011518c10.722513 6.433508 21.445026 12.867016 33.23979 18.228272 15.011518 7.505759 31.095288 13.939267 46.106806 20.372775 12.867016 4.289005 24.66178 8.57801 37.528796 13.939267 10.722513 3.216754 21.445026 7.505759 32.167539 10.722513 6.433508 2.144503 12.867016 4.289005 20.372775 6.433508 1.072251-1.072251 3.216754-1.072251 4.289006-2.144503 41.817801-22.517277 78.274346-50.395812 110.441884-85.780104 0-1.072251 1.072251-1.072251 1.072252-2.144503-8.57801 0-16.08377-2.144503-24.66178-4.289005-10.722513 0-20.372775-1.072251-31.095288-3.216754z" fill="#f4ea2a" p-id="23985"></path><path d="M349.553927 349.553927c10.722513 9.650262 23.589529 17.156021 36.456544 22.517277 12.867016 5.361257 26.806283 8.57801 40.74555 10.722513l22.517277 3.216754c7.505759 1.072251 16.08377 0 22.517278 2.144503h25.734031c-1.072251-8.57801-3.216754-16.08377-4.289005-24.66178-1.072251-8.57801-2.144503-17.156021-2.144503-25.734032-1.072251-16.08377-1.072251-32.167539 1.072252-48.251309v-4.289005l-2.144503-2.144502c-4.289005-7.505759-10.722513-13.939267-16.083769-21.445027l-3.216754-3.216754c-8.57801-6.433508-16.08377-13.939267-23.589529-20.372774-7.505759-5.361257-13.939267-10.722513-20.372775-17.156021-7.505759-6.433508-15.011518-11.794764-21.445026-19.300524-5.361257-5.361257-9.650262-10.722513-13.939267-17.156021-5.361257-5.361257-10.722513-12.867016-16.08377-21.445026-2.144503-4.289005-5.361257-8.57801-5.361256-13.939267-1.072251 1.072251-3.216754 1.072251-4.289006 1.072251-27.878534 13.939267-45.034555 36.456545-51.468062 66.479581-4.289005 19.300524-6.433508 38.601047-8.578011 57.901571-1.072251 6.433508-1.072251 13.939267-1.072251 20.372775 2.144503 3.216754 3.216754 5.361257 5.361256 8.57801 10.722513 17.156021 24.66178 32.167539 39.673299 46.106807z" fill="#f4ea2a" p-id="23986"></path><path d="M492.163351 866.379058c-6.433508-2.144503-12.867016-4.289005-18.228272-6.433508-20.372775-6.433508-39.673298-12.867016-60.046074-20.372775-17.156021-6.433508-34.312042-13.939267-50.395811-21.445026-18.228272-8.57801-35.384293-19.300524-51.468063-32.16754-10.722513-8.57801-20.372775-18.228272-30.023037-27.878534-9.650262-11.794764-18.228272-24.66178-25.734031-38.601047-9.650262-19.300524-16.08377-39.673298-20.372775-60.046073 1.072251-5.361257 0-9.650262 0-13.939267-25.734031-3.216754-49.32356 2.144503-70.768586 18.228272v16.08377c0 6.433508 1.072251 12.867016 2.144502 19.300523 2.144503 13.939267 6.433508 27.878534 10.722513 40.74555 4.289005 11.794764 9.650262 21.445026 15.011519 32.167539 3.216754 6.433508 8.57801 12.867016 12.867015 19.300524 9.650262 11.794764 20.372775 23.589529 32.16754 33.239791 13.939267 11.794764 30.023037 21.445026 45.034555 31.095288 11.794764 7.505759 23.589529 15.011518 35.384293 21.445026 8.57801 5.361257 18.228272 10.722513 27.878534 16.083769 3.216754 2.144503 6.433508 4.289005 10.722513 6.433508 6.433508 1.072251 12.867016 0 19.300523 0 40.74555-2.144503 80.418848-11.794764 116.875393-28.950785 1.072251 0 2.144503-1.072251 3.216754-2.144503-1.072251-1.072251-2.144503-2.144503-4.289005-2.144502zM691.602094 636.917277c-3.216754 1.072251-5.361257 1.072251-8.57801 0-3.216754-1.072251-7.505759-1.072251-10.722513-1.072251h-26.806283c-6.433508 0-11.794764 0-18.228272-1.072251H621.905759c-5.361257 0-10.722513 0-17.156021-1.072251h-1.072251c-8.57801 1.072251-17.156021-1.072251-25.734032-2.144503-6.433508 0-11.794764-1.072251-18.228272-2.144503-4.289005-1.072251-9.650262-1.072251-13.939267-1.072251-11.794764-1.072251-22.517277-3.216754-34.312042-4.289005-1.072251 0-3.216754-1.072251-4.289005-1.072252-1.072251 1.072251-3.216754 3.216754-4.289005 5.361257-17.156021 22.517277-37.528796 42.890052-62.190576 57.901571-6.433508 4.289005-12.867016 7.505759-19.300524 10.722513 3.216754 1.072251 6.433508 3.216754 8.578011 4.289005 19.300524 6.433508 38.601047 12.867016 58.973822 18.228272 19.300524 4.289005 37.528796 8.57801 56.829319 11.794765 19.300524 3.216754 37.528796 6.433508 56.82932 9.650261 13.939267 2.144503 27.878534 4.289005 41.817801 7.50576 1.072251 0 1.072251 1.072251 2.144502 1.072251s1.072251-1.072251 1.072252-1.072251c9.650262-12.867016 19.300524-25.734031 26.806282-40.74555 8.57801-16.08377 16.08377-33.239791 22.517278-50.395812 2.144503-6.433508 5.361257-12.867016 6.433508-19.300523-3.216754-1.072251-7.505759-1.072251-11.794765-1.072252zM763.442932 202.655497c-1.072251-1.072251-3.216754-2.144503-5.361257-4.289005-1.072251-1.072251-2.144503-1.072251-3.216754-1.072251-19.300524-9.650262-38.601047-12.867016-60.046073-9.650262-18.228272 3.216754-35.384293 10.722513-49.32356 24.66178-13.939267 12.867016-22.517277 28.950785-27.878534 48.251309-3.216754 16.08377-8.57801 33.239791-13.939267 48.251309-1.072251 4.289005-3.216754 8.57801-4.289005 11.794764 5.361257 0 9.650262 0 15.011518-1.072251 6.433508-1.072251 12.867016-1.072251 20.372775-2.144503 4.289005 0 9.650262-1.072251 13.939267-1.072251 10.722513-1.072251 20.372775-2.144503 31.095288-3.216754l22.517277-3.216754c11.794764-2.144503 22.517277-4.289005 34.312042-7.505759 12.867016-3.216754 25.734031-8.57801 37.528796-13.939267 9.650262-4.289005 18.228272-9.650262 25.734031-16.08377 1.072251-1.072251 2.144503-1.072251 3.216754-2.144502 0-3.216754 0-5.361257-1.072251-8.578011-5.361257-24.66178-18.228272-43.962304-38.601047-58.973822z" fill="#f4ea2a" p-id="23987"></path><path d="M271.279581 863.162304c-12.867016-7.505759-24.66178-16.08377-35.384293-25.734032-10.722513-9.650262-21.445026-20.372775-32.167539-31.095288-9.650262-10.722513-17.156021-21.445026-23.589529-34.312042-8.57801-16.08377-15.011518-33.239791-19.300524-51.468062-3.216754-11.794764-5.361257-24.66178-5.361256-36.456545 0-3.216754-1.072251-6.433508-1.072252-10.722513-1.072251 0-1.072251 1.072251-1.072251 1.072251-18.228272 20.372775-25.734031 43.962304-23.589529 71.840838 2.144503 21.445026 10.722513 40.74555 25.734032 56.829319 8.57801 9.650262 18.228272 19.300524 27.878534 27.878534 20.372775 17.156021 41.817801 32.167539 66.479581 42.890053 12.867016 6.433508 26.806283 10.722513 39.673298 15.011518 2.144503 0 3.216754 0 4.289006 1.072251 4.289005 0 7.505759 1.072251 10.722513 2.144503 7.505759 1.072251 13.939267 3.216754 21.445026 3.216754-5.361257-3.216754-9.650262-6.433508-15.011518-8.578011-15.011518-6.433508-27.878534-15.011518-39.673299-23.589528z" fill="#f4ea2a" p-id="23988"></path><path d="M406.383246 188.71623c8.57801 10.722513 18.228272 20.372775 28.950785 30.023037 7.505759 6.433508 15.011518 12.867016 22.517278 18.228272 10.722513 8.57801 21.445026 16.08377 30.023037 25.734032 2.144503 2.144503 4.289005 5.361257 6.433507 7.505759 2.144503-11.794764 4.289005-23.589529 4.289006-35.384293 0-32.167539-13.939267-57.901571-39.673299-77.202095-2.144503-1.072251-4.289005-3.216754-6.433508-4.289005-10.722513-6.433508-22.517277-10.722513-35.384293-11.794764-12.867016-1.072251-24.66178-1.072251-37.528796 2.144502 1.072251 7.505759 5.361257 15.011518 8.578011 22.517278 7.505759 7.505759 11.794764 16.08377 18.228272 22.517277z" fill="#f4ea2a" p-id="23989"></path><path d="M705.541361 484.657592c-15.011518 3.216754-31.095288 6.433508-46.106806 7.505759-4.289005 1.072251-9.650262 1.072251-13.939267 1.072251-10.722513 1.072251-21.445026 2.144503-33.239791 2.144503-2.144503 0-5.361257 0-7.505759 1.072251-3.216754 1.072251-5.361257 1.072251-8.57801 1.072251h-105.080629c-6.433508-1.072251-12.867016-1.072251-19.300523-1.072251-2.144503 0-4.289005 0-6.433508-1.072251-2.144503-1.072251-5.361257-1.072251-7.505759-1.072252-7.505759-1.072251-15.011518-1.072251-21.445026-1.072251-8.57801-1.072251-17.156021-3.216754-26.806283-3.216754-13.939267-2.144503-27.878534-4.289005-41.817801-8.57801-11.794764-3.216754-24.66178-6.433508-36.456545-10.722513-1.072251-1.072251-3.216754-1.072251-4.289005-1.072252v2.144503c4.289005 11.794764 9.650262 22.517277 16.08377 33.23979 2.144503 0 4.289005 0 6.433508 1.072252 10.722513 3.216754 21.445026 5.361257 32.167539 7.505759 8.57801 2.144503 18.228272 3.216754 27.878534 4.289005 8.57801 1.072251 17.156021 3.216754 26.806283 3.216754 7.505759 1.072251 15.011518 2.144503 22.517277 2.144503h2.144503c5.361257 1.072251 10.722513 1.072251 17.156021 1.072251 2.144503 0 4.289005 0 6.433508 1.072251 3.216754 1.072251 5.361257 1.072251 8.57801 1.072252h111.514136c10.722513-2.144503 20.372775-1.072251 31.095288-2.144503 6.433508-1.072251 12.867016-1.072251 18.228272-2.144503s10.722513-1.072251 16.08377-2.144502l22.517278-3.216754c11.794764-2.144503 23.589529-5.361257 35.384293-8.578011 5.361257-1.072251 10.722513-3.216754 15.011518-4.289005 3.216754-9.650262 6.433508-20.372775 8.578011-30.023036v-3.216754c-2.144503 0-5.361257 1.072251-7.50576 1.072251-9.650262 5.361257-23.589529 9.650262-38.601047 12.867016zM602.605236 739.853403c-19.300524-3.216754-37.528796-6.433508-56.82932-9.650262s-37.528796-7.505759-56.829319-11.794764c-20.372775-5.361257-39.673298-10.722513-58.973822-18.228272-3.216754-1.072251-6.433508-2.144503-8.578011-4.289006-12.867016 5.361257-26.806283 10.722513-40.745549 12.867016h-1.072252c13.939267 7.505759 28.950785 12.867016 43.962304 18.228272 24.66178 8.57801 50.395812 16.08377 76.129843 21.445027 13.939267 3.216754 27.878534 5.361257 41.817801 8.57801 9.650262 2.144503 20.372775 4.289005 30.023037 5.361257 10.722513 2.144503 20.372775 4.289005 30.023036 5.361256 8.57801 1.072251 16.08377 3.216754 24.66178 3.216754 7.505759-7.505759 13.939267-15.011518 20.372775-24.66178-1.072251 0-1.072251-1.072251-2.144502-1.072251-13.939267-1.072251-27.878534-3.216754-41.817801-5.361257zM799.899476 271.279581c-8.57801 6.433508-17.156021 11.794764-25.734031 16.08377-11.794764 6.433508-24.66178 10.722513-37.528796 13.939267-10.722513 3.216754-22.517277 5.361257-34.312042 7.505759l-22.517277 3.216754c-10.722513 1.072251-20.372775 2.144503-31.095288 3.216754-4.289005 1.072251-9.650262 1.072251-13.939267 1.072251-6.433508 0-13.939267 1.072251-20.372775 2.144503-5.361257 1.072251-9.650262 1.072251-15.011518 1.072251-3.216754 6.433508-6.433508 13.939267-8.578011 20.372775h5.361257c7.505759-2.144503 16.08377-1.072251 23.589529-2.144503 6.433508-1.072251 12.867016-1.072251 20.372774-1.072251 8.57801-1.072251 18.228272 0 27.878534-1.072251 5.361257-1.072251 11.794764-1.072251 17.156021-1.072252l25.734032-3.216754c13.939267-2.144503 26.806283-5.361257 39.673298-9.650261 16.08377-5.361257 31.095288-12.867016 43.962304-21.445027 2.144503-1.072251 4.289005-3.216754 7.505759-4.289005 2.144503-8.57801 2.144503-18.228272 1.072251-26.806282 0 1.072251-2.144503 1.072251-3.216754 2.144502zM457.851309 843.86178c-12.867016-4.289005-25.734031-8.57801-37.528796-13.939267-16.08377-6.433508-31.095288-12.867016-46.106806-20.372775-11.794764-5.361257-22.517277-11.794764-33.239791-18.228272-7.505759-4.289005-15.011518-9.650262-21.445026-15.011518-7.505759-5.361257-12.867016-12.867016-20.372775-18.228273-6.433508-6.433508-12.867016-13.939267-18.228272-21.445026-9.650262-12.867016-17.156021-27.878534-22.517278-43.962303-5.361257-13.939267-9.650262-28.950785-11.794764-45.034555-3.216754-2.144503-6.433508-2.144503-10.722513-2.144503 0 4.289005 1.072251 8.57801 1.072251 12.867016 3.216754 21.445026 10.722513 40.74555 20.372775 60.046073 6.433508 13.939267 15.011518 26.806283 25.734032 38.601047 8.57801 10.722513 18.228272 20.372775 30.023036 27.878534 16.08377 11.794764 33.239791 22.517277 51.468063 32.167539 16.08377 8.57801 33.239791 16.08377 50.395812 21.445027 19.300524 7.505759 39.673298 15.011518 60.046073 20.372774 6.433508 2.144503 12.867016 4.289005 18.228272 6.433508 1.072251 0 3.216754 1.072251 3.216754 2.144503 5.361257-1.072251 9.650262-4.289005 15.011518-7.505759-6.433508-2.144503-12.867016-4.289005-20.372775-6.433508-11.794764-2.144503-22.517277-6.433508-33.23979-9.650262zM160.837696 721.625131c4.289005 18.228272 10.722513 35.384293 19.300524 51.468063 6.433508 11.794764 13.939267 23.589529 23.589529 34.312042 9.650262 10.722513 20.372775 21.445026 32.167539 31.095288 10.722513 9.650262 22.517277 18.228272 34.312042 25.734031 12.867016 8.57801 25.734031 16.08377 39.673298 23.589529 5.361257 3.216754 9.650262 6.433508 15.011519 8.57801 10.722513 2.144503 20.372775 3.216754 31.095288 2.144503-3.216754-2.144503-6.433508-4.289005-10.722514-6.433508-9.650262-5.361257-18.228272-9.650262-27.878534-16.08377-11.794764-7.505759-23.589529-13.939267-35.384293-21.445026-16.08377-9.650262-31.095288-19.300524-45.034555-31.095288-11.794764-9.650262-22.517277-20.372775-32.167539-33.23979l-12.867016-19.300524c-5.361257-10.722513-11.794764-21.445026-15.011518-32.167539-4.289005-12.867016-8.57801-26.806283-10.722513-40.74555-1.072251-6.433508-2.144503-12.867016-2.144503-19.300523v-16.08377c-4.289005 3.216754-8.57801 6.433508-10.722513 10.722513 0 3.216754 1.072251 6.433508 1.072251 10.722513 1.072251 12.867016 4.289005 24.66178 6.433508 37.528796zM308.808377 319.53089c8.57801 12.867016 19.300524 24.66178 30.023037 35.384293 8.57801 8.57801 18.228272 15.011518 27.878534 20.372775 13.939267 7.505759 28.950785 12.867016 45.034555 16.08377 16.08377 3.216754 33.239791 6.433508 49.32356 6.433508h3.216754c3.216754 1.072251 7.505759 1.072251 10.722513 1.072251 7.505759 0 15.011518-1.072251 21.445026 1.072251 1.072251 0 2.144503-1.072251 3.216754-1.072251l-3.216754-9.650262h-25.734031c-7.505759-2.144503-15.011518-1.072251-22.517278-2.144502l-22.517277-3.216754c-13.939267-2.144503-27.878534-6.433508-40.74555-10.722514-12.867016-5.361257-25.734031-12.867016-36.456545-23.589528-15.011518-13.939267-27.878534-28.950785-39.673298-46.106807-2.144503-3.216754-3.216754-5.361257-5.361257-8.57801-1.072251 6.433508-1.072251 11.794764-1.072251 18.228272 3.216754 2.144503 5.361257 4.289005 6.433508 6.433508zM677.662827 628.339267h-5.361256c-5.361257-1.072251-10.722513-1.072251-16.08377-1.072251-10.722513 0-21.445026 0-32.167539-1.072252-7.505759-1.072251-16.08377-1.072251-23.589529-1.072251-7.505759-1.072251-15.011518-2.144503-22.517278-2.144503h-1.072251c-6.433508-2.144503-12.867016-1.072251-20.372775-2.144502-5.361257-1.072251-11.794764-1.072251-17.156021-2.144503-8.57801-1.072251-18.228272-3.216754-26.806282-4.289005-1.072251 0-1.072251 1.072251-1.072252 1.072251 0 3.216754-3.216754 4.289005-3.216754 7.505759 1.072251 1.072251 3.216754 1.072251 4.289006 1.072252 11.794764 1.072251 22.517277 3.216754 34.312042 4.289005 4.289005 1.072251 9.650262 1.072251 13.939267 1.072251 6.433508 1.072251 11.794764 2.144503 18.228272 2.144503 8.57801 0 17.156021 2.144503 25.734031 2.144503h1.072252c5.361257 1.072251 10.722513 1.072251 17.15602 1.072251h5.361257c6.433508 1.072251 11.794764 1.072251 18.228272 1.072251h26.806283c3.216754 0 7.505759 0 10.722513 1.072251 3.216754 1.072251 5.361257 1.072251 8.578011 0 4.289005-1.072251 8.57801-1.072251 12.867015-1.072251 2.144503-3.216754 3.216754-6.433508 3.216754-9.650262-10.722513 2.144503-21.445026 2.144503-31.095288 2.144503z" fill="#f4ea2a" p-id="23990"></path><path d="M392.443979 186.571728c4.289005 6.433508 8.57801 11.794764 13.939267 17.156021 6.433508 6.433508 13.939267 12.867016 21.445026 19.300523 6.433508 5.361257 13.939267 11.794764 20.372775 17.156021 8.57801 6.433508 16.08377 13.939267 23.589529 20.372775l3.216754 3.216754c5.361257 6.433508 11.794764 12.867016 16.083769 21.445026 0 1.072251 1.072251 1.072251 2.144503 2.144503 0-5.361257 2.144503-10.722513 1.072251-16.08377-2.144503-2.144503-4.289005-5.361257-6.433507-7.505759-8.57801-9.650262-20.372775-18.228272-30.023037-25.734031-7.505759-6.433508-16.08377-11.794764-22.517278-18.228273-10.722513-9.650262-20.372775-19.300524-28.950785-30.023036-5.361257-7.505759-10.722513-15.011518-15.011518-22.517278-4.289005-6.433508-7.505759-13.939267-8.578011-22.517277-4.289005 1.072251-8.57801 2.144503-11.794764 4.289005 1.072251 5.361257 3.216754 9.650262 5.361256 13.939267 4.289005 8.57801 9.650262 16.08377 16.08377 23.589529z" fill="#f4ea2a" p-id="23991"></path><path d="M674.446073 762.370681c12.867016-16.08377 24.66178-33.239791 34.312042-51.468063 4.289005-8.57801 8.57801-17.156021 11.794765-25.734032 15.011518-34.312042 26.806283-69.696335 38.601047-106.152879 18.228272-56.829319 34.312042-113.658639 49.32356-171.56021 8.57801-31.095288 16.08377-62.190576 24.66178-94.358115 3.216754-10.722513 3.216754-22.517277 2.144503-34.312042-4.289005-32.167539-21.445026-55.757068-49.323561-70.768586-7.505759-4.289005-16.08377-7.505759-25.734031-8.578011 1.072251 1.072251 3.216754 2.144503 5.361257 3.216754 20.372775 13.939267 33.239791 34.312042 38.601047 57.901571 1.072251 3.216754 1.072251 5.361257 1.072251 8.578011 1.072251 8.57801 1.072251 18.228272-1.072251 26.806282 0 5.361257-2.144503 10.722513-3.216754 16.08377-11.794764 46.106806-23.589529 91.141361-36.456545 137.248167-2.144503 7.505759-3.216754 15.011518-6.433508 21.445027v3.216754c-3.216754 9.650262-6.433508 20.372775-8.57801 30.023036 0 2.144503-1.072251 4.289005-1.072251 5.361257-8.57801 27.878534-16.08377 54.684817-25.734032 82.563351-4.289005 11.794764-7.505759 23.589529-12.867016 35.384293l-3.216753 9.650261c-1.072251 6.433508-4.289005 12.867016-6.433508 19.300524-6.433508 17.156021-13.939267 34.312042-22.517278 50.395812-7.505759 13.939267-17.156021 27.878534-26.806282 40.745549 0 1.072251-1.072251 1.072251-1.072252 1.072252-6.433508 8.57801-12.867016 17.156021-20.372775 24.66178 0 1.072251-1.072251 1.072251-1.072251 2.144502-32.167539 34.312042-68.624084 63.262827-110.441885 85.780105-1.072251 1.072251-3.216754 1.072251-4.289005 2.144503-4.289005 3.216754-9.650262 5.361257-15.011518 7.505759-1.072251 1.072251-2.144503 1.072251-3.216754 2.144502-37.528796 17.156021-76.129843 26.806283-116.875393 28.950786-6.433508 0-12.867016 1.072251-19.300524 0-10.722513 0-20.372775-1.072251-31.095287-2.144503-7.505759 0-13.939267-2.144503-21.445027-3.216754-3.216754-1.072251-7.505759-2.144503-10.722513-2.144502v1.072251c28.950785 11.794764 60.046073 17.156021 91.141362 18.228272 22.517277 1.072251 46.106806-1.072251 68.624083-6.433508 38.601047-7.505759 73.98534-22.517277 107.225131-41.817801 41.817801-28.950785 79.346597-62.190576 111.514136-102.936125zM499.66911 235.895288c0 11.794764-3.216754 23.589529-4.289005 35.384293 0 5.361257-1.072251 10.722513-1.072252 16.08377v4.289005c-1.072251 16.08377-1.072251 32.167539-1.072251 48.251309 0 8.57801 1.072251 17.156021 2.144503 25.734031 1.072251 8.57801 3.216754 16.08377 4.289005 24.66178l3.216754 9.650262c1.072251 2.144503 2.144503 4.289005 3.216754 7.505759 1.072251 3.216754 3.216754 6.433508 5.361256 8.578011 2.144503 2.144503 4.289005 4.289005 6.433508 4.289005 6.433508 1.072251 11.794764 1.072251 17.156021-3.216754-2.144503-5.361257-3.216754-9.650262-5.361256-15.011518-4.289005-17.156021-6.433508-34.312042-6.433508-52.540314-1.072251-28.950785 1.072251-56.829319 6.433508-85.780105 2.144503-9.650262 2.144503-20.372775 0-30.023037-6.433508-38.601047-28.950785-64.335079-65.40733-77.202094-3.216754-1.072251-6.433508-2.144503-8.578011-2.144503 2.144503 1.072251 4.289005 3.216754 6.433508 4.289006 24.66178 19.300524 37.528796 43.962304 37.528796 77.202094zM273.424084 659.434555c7.505759 5.361257 15.011518 10.722513 20.372775 18.228272 2.144503 3.216754 5.361257 6.433508 8.57801 8.578011 9.650262 8.57801 20.372775 16.08377 32.167539 20.372775 3.216754 1.072251 6.433508 3.216754 10.722513 2.144502h0s0-1.072251-1.072251-1.072251c-8.57801-6.433508-17.156021-13.939267-24.66178-22.517278-11.794764-12.867016-25.734031-21.445026-42.890052-26.806282-2.144503-1.072251-4.289005-1.072251-6.433508-1.072252 2.144503 1.072251 2.144503 1.072251 3.216754 2.144503z" fill="#f4ea2a" p-id="23992"></path><path d="M475.00733 602.605236c-2.144503 0-4.289005-1.072251-6.433508-1.072252 6.433508 3.216754 13.939267 6.433508 20.372775 8.578011s13.939267 4.289005 20.372775 5.361256c1.072251 0 1.072251-1.072251 1.072251-1.072251 0-2.144503 2.144503-3.216754 1.072251-5.361257-2.144503 0-4.289005-1.072251-7.505759-1.072251-8.57801-1.072251-18.228272-3.216754-28.950785-5.361256zM466.429319 600.460733z" fill="#f4ea2a" p-id="23993"></path></svg>
